<svg xmlns="http://www.w3.org/2000/svg" version="1.1" xmlns:xlink="http://www.w3.org/1999/xlink" xmlns:svgjs="http://svgjs.dev/svgjs" width="1000" height="1000" viewBox="0 0 1000 1000"><rect width="1000" height="1000" fill="#111111"></rect><g transform="matrix(0.7,0,0,0.7,149.57575757575756,282.1265694807415)"><svg viewBox="0 0 396 247" data-background-color="#111111" preserveAspectRatio="xMidYMid meet" height="623" width="1000" xmlns="http://www.w3.org/2000/svg" xmlns:xlink="http://www.w3.org/1999/xlink"><g id="tight-bounds" transform="matrix(1,0,0,1,0.2400000000000091,-0.10000610351559658)"><svg viewBox="0 0 395.52 247.2" height="247.2" width="395.52"><rect width="395.5199890136719" height="247.20001220703125" fill="url(#e68a5cea-db87-4890-88f1-b9c51661b2a4)" mask="url(#144c3192-c5fb-4598-a650-2c51a7b38759)" data-fill-palette-color="tertiary"></rect><g><svg></svg></g><g><svg viewBox="0 0 395.52 247.2" height="247.2" width="395.52"><g><path xmlns="http://www.w3.org/2000/svg" d="M55.039 247.2l26.403-45.732 1.955 0-25.373 43.947h279.472l-25.373-43.947 1.955 0 26.403 45.732zM197.76 0l26.403 45.732-1.954 0-24.449-42.347-24.449 42.347-1.954 0z" fill="url(#e68a5cea-db87-4890-88f1-b9c51661b2a4)" fill-rule="nonzero" stroke="none" stroke-width="1" stroke-linecap="butt" stroke-linejoin="miter" stroke-miterlimit="10" stroke-dasharray="" stroke-dashoffset="0" font-family="none" font-weight="none" font-size="none" text-anchor="none" style="mix-blend-mode: normal" data-fill-palette-color="tertiary"></path></g><g transform="matrix(1,0,0,1,67.86084533579108,67.97999999999999)"><svg viewBox="0 0 259.7983093284178 111.24" height="111.24" width="259.7983093284178"><g><svg viewBox="0 0 395.52 169.3530836044873" height="111.24" width="259.7983093284178"><g transform="matrix(1,0,0,1,0,102.58175310394716)"><svg viewBox="0 0 395.52 66.77133050054013" height="66.77133050054013" width="395.52"><g id="textblocktransform"><svg viewBox="0 0 395.52 66.77133050054013" height="66.77133050054013" width="395.52" id="textblock"><g><svg viewBox="0 0 395.52 43.646005321170655" height="43.646005321170655" width="395.52"><g transform="matrix(1,0,0,1,0,0)"><svg width="395.52" viewBox="2.75 -33.25 394.6099853515625 43.54999923706055" height="43.646005321170655" data-palette-color="url(#e946ce21-88dc-40bf-9695-da7e6b574b70)"></svg></g></svg></g><g transform="matrix(1,0,0,1,75.54432000000001,53.94977967337134)"><svg viewBox="0 0 244.43135999999996 12.821550827168792" height="12.821550827168792" width="244.43135999999996"><g transform="matrix(1,0,0,1,0,0)"><svg width="244.43135999999996" viewBox="4.5 -35.599998474121094 892.0999755859375 46.79999923706055" height="12.821550827168792" data-palette-color="url(#8cf05702-f6ce-4c04-995b-dd1c934a1903)"></svg></g></svg></g></svg></g></svg></g><g transform="matrix(1,0,0,1,151.62101062412674,0)"><svg viewBox="0 0 92.27797875174649 92.27797875174647" height="92.27797875174647" width="92.27797875174649"><g><svg></svg></g><g id="icon-0"><svg viewBox="0 0 92.27797875174649 92.27797875174647" height="92.27797875174647" width="92.27797875174649"><g><path xmlns="http://www.w3.org/2000/svg" d="M27.683 92.278c-15.289 0-27.683-12.394-27.683-27.683v-36.912c0-15.289 12.394-27.683 27.683-27.683h36.912c15.289 0 27.683 12.394 27.683 27.683v36.912c0 15.289-12.394 27.683-27.683 27.683z" fill="#001f3f" fill-rule="nonzero" stroke="none" stroke-width="1" stroke-linecap="butt" stroke-linejoin="miter" stroke-miterlimit="10" stroke-dasharray="" stroke-dashoffset="0" font-family="none" font-weight="none" font-size="none" text-anchor="none" style="mix-blend-mode: normal" data-fill-palette-color="accent"></path></g><g transform="matrix(1,0,0,1,18.455595750349307,22.714686451017247)"><svg viewBox="0 0 55.366787251047874 46.84860584971198" height="46.84860584971198" width="55.366787251047874"><g><svg xmlns="http://www.w3.org/2000/svg" xmlns:xlink="http://www.w3.org/1999/xlink" version="1.1" x="0" y="0" viewBox="0 13.42199993133545 100 84.61499786376953" enable-background="new 0 0 100 100" xml:space="preserve" height="46.84860584971198" width="55.366787251047874" class="icon-s-0" data-fill-palette-color="quaternary" id="s-0"><g fill="#ffffff" data-fill-palette-color="quaternary"><path d="M0 13.422v84.615h100V13.422H0zM92.308 90.346H7.692V28.807h84.615V90.346z" fill="#ffffff" data-fill-palette-color="quaternary"></path><rect x="42.002" y="66.065" width="26.488" height="7.775" fill="#ffffff" data-fill-palette-color="quaternary"></rect><polygon points="15.521,66.064 41.988,55.549 41.988,55.527 42.002,55.533 42.002,47.181 41.988,47.187 41.988,47.165    15.521,36.65 15.515,45.014 31.487,51.357 15.515,57.701  " fill="#ffffff" data-fill-palette-color="quaternary"></polygon></g></svg></g></svg></g></svg></g></svg></g><g></g></svg></g></svg></g></svg></g><defs></defs><mask id="32428e8b-12f8-4e2b-b988-161a33846b52"><g id="SvgjsG2948"><svg viewBox="0 0 395.52 247.2" height="247.2" width="395.52"><g><svg></svg></g><g><svg viewBox="0 0 395.52 247.2" height="247.2" width="395.52"><g></g><g transform="matrix(1,0,0,1,67.86084533579108,67.97999999999999)"><svg viewBox="0 0 259.7983093284178 111.24" height="111.24" width="259.7983093284178"><g><svg viewBox="0 0 395.52 169.3530836044873" height="111.24" width="259.7983093284178"><g transform="matrix(1,0,0,1,0,102.58175310394716)"><svg viewBox="0 0 395.52 66.77133050054013" height="66.77133050054013" width="395.52"><g id="SvgjsG2947"><svg viewBox="0 0 395.52 66.77133050054013" height="66.77133050054013" width="395.52" id="SvgjsSvg2946"><g><svg viewBox="0 0 395.52 43.646005321170655" height="43.646005321170655" width="395.52"><g transform="matrix(1,0,0,1,0,0)"><svg width="395.52" viewBox="2.75 -33.25 394.6099853515625 43.54999923706055" height="43.646005321170655" data-palette-color="url(#e946ce21-88dc-40bf-9695-da7e6b574b70)"><path d="M14.05 0.5Q8.35 0.5 5.55-3.5 2.75-7.5 2.75-16.35 2.75-25.2 5.45-29.23 8.15-33.25 14.1-33.25L14.1-33.25Q18-33.25 21.95-32L21.95-32 21.95-25.4 19.2-25.4 19.2-29.85Q17-30.65 14.1-30.65L14.1-30.65Q9.6-30.65 7.65-27.3 5.7-23.95 5.7-16.45 5.7-8.95 7.8-5.55 9.9-2.15 14.1-2.15L14.1-2.15Q17.25-2.15 21.6-3.5L21.6-3.5 22.25-0.9Q18.15 0.5 14.05 0.5L14.05 0.5ZM36.35 0.35L27.65-23.75 30.65-23.75 37.7-3.55 38.1-3.55 44.4-23.75 47.4-23.75 38.2 4.05Q36.9 8 35.47 9.1 34.05 10.2 29.7 10.3L29.7 10.3 29.7 7.75Q32.5 7.7 33.45 6.95 34.4 6.2 35.2 3.8L35.2 3.8 36.35 0.35ZM56.35 0L53.85 0 53.85-33.2 56.5-33.2 56.5-21.45Q60.25-24.05 63.3-24.05L63.3-24.05Q67.8-24.05 70.25-20.98 72.7-17.9 72.7-12.2 72.7-6.5 69.95-3.03 67.2 0.45 62.45 0.45L62.45 0.45Q59.55 0.45 56.45-1L56.45-1 56.35 0ZM69.84-12.15Q69.84-16.55 68.12-19 66.4-21.45 63.15-21.45 59.9-21.45 56.5-18.6L56.5-18.6 56.5-3.6Q57.55-3.1 59.37-2.63 61.2-2.15 62.35-2.15L62.35-2.15Q65.84-2.15 67.84-4.95 69.84-7.75 69.84-12.15ZM78.34-11.85Q78.34-17.6 80.72-20.83 83.09-24.05 87.64-24.05 92.19-24.05 94.42-21.05 96.64-18.05 96.64-13.05L96.64-13.05 96.49-10.55 81.19-10.55Q81.44-6.8 83.19-4.48 84.94-2.15 88.02-2.15 91.09-2.15 95.24-3.6L95.24-3.6 95.99-1.1Q91.94 0.45 88.39 0.45L88.39 0.45Q83.49 0.45 80.92-2.83 78.34-6.1 78.34-11.85ZM87.84-21.5L87.84-21.5Q81.54-21.5 81.19-13.05L81.19-13.05 93.79-13.05Q93.79-21.5 87.84-21.5ZM109.24-21.25L104.54-21.25 104.54-23.75 111.89-23.75 111.99-20.85Q113.59-21.85 116.49-22.85 119.39-23.85 121.59-24.05L121.59-24.05 121.59-21.1Q119.54-20.95 116.52-20.1 113.49-19.25 111.99-18.35L111.99-18.35 111.99-2.5 119.99-2.5 119.99 0 104.54 0 104.54-2.5 109.24-2.5 109.24-21.25ZM139.04 0.5Q133.34 0.5 130.54-3.5 127.74-7.5 127.74-16.35 127.74-25.2 130.44-29.23 133.14-33.25 139.09-33.25L139.09-33.25Q142.99-33.25 146.94-32L146.94-32 146.94-25.4 144.19-25.4 144.19-29.85Q141.99-30.65 139.09-30.65L139.09-30.65Q134.59-30.65 132.64-27.3 130.69-23.95 130.69-16.45 130.69-8.95 132.79-5.55 134.89-2.15 139.09-2.15L139.09-2.15Q142.24-2.15 146.59-3.5L146.59-3.5 147.24-0.9Q143.14 0.5 139.04 0.5L139.04 0.5ZM152.94-11.8Q152.94-24.05 162.49-24.05 172.04-24.05 172.04-11.8 172.04 0.45 162.49 0.45 152.94 0.45 152.94-11.8ZM162.49-21.45Q155.79-21.45 155.79-11.8 155.79-2.15 162.49-2.15 169.19-2.15 169.19-11.8 169.19-21.45 162.49-21.45ZM193.73-33.2L196.38-33.2 196.38-4.15 196.88 0.2 194.33 0.5 193.83-2.15Q190.08 0.45 186.93 0.45L186.93 0.45Q182.48 0.45 180.01-2.85 177.53-6.15 177.53-11.83 177.53-17.5 180.28-20.78 183.03-24.05 187.78-24.05L187.78-24.05Q190.58-24.05 193.73-22.7L193.73-22.7 193.73-33.2ZM180.38-11.9Q180.38-7.5 182.11-4.83 183.83-2.15 187.08-2.15 190.33-2.15 193.73-5L193.73-5 193.73-20Q192.68-20.5 190.86-20.98 189.03-21.45 187.88-21.45L187.88-21.45Q184.33-21.45 182.36-18.88 180.38-16.3 180.38-11.9ZM203.33-11.85Q203.33-17.6 205.71-20.83 208.08-24.05 212.63-24.05 217.18-24.05 219.41-21.05 221.63-18.05 221.63-13.05L221.63-13.05 221.48-10.55 206.18-10.55Q206.43-6.8 208.18-4.48 209.93-2.15 213.01-2.15 216.08-2.15 220.23-3.6L220.23-3.6 220.98-1.1Q216.93 0.45 213.38 0.45L213.38 0.45Q208.48 0.45 205.91-2.83 203.33-6.1 203.33-11.85ZM212.83-21.5L212.83-21.5Q206.53-21.5 206.18-13.05L206.18-13.05 218.78-13.05Q218.78-21.5 212.83-21.5ZM230.08 0L227.38 0 227.38-32.75 230.03-32.75 237.08-14.4 237.83-14.4 244.88-32.75 247.53-32.75 247.53 0 244.83 0 244.83-25.4 244.63-25.4 239.38-11.85 235.53-11.85 230.28-25.45 230.08-25.45 230.08 0ZM260.88-2.15L260.88-2.15Q262.73-2.15 264.9-3.33 267.08-4.5 268.08-5.5L268.08-5.5 268.08-11.45Q264.78-11.7 261.78-11.7 258.78-11.7 257.28-10.43 255.78-9.15 255.78-7L255.78-7Q255.78-2.15 260.88-2.15ZM260.83 0.45L260.83 0.45Q257.18 0.45 255.08-1.43 252.98-3.3 252.98-6.75 252.98-10.2 255.28-12.1L255.28-12.1Q257.58-14.05 261.38-14.05 265.18-14.05 268.08-13.75L268.08-13.75Q268.08-18.2 266.98-19.83 265.88-21.45 262.53-21.45 259.18-21.45 254.63-19.85L254.63-19.85 253.88-22.35Q258.53-24.05 262.28-24.05L262.28-24.05Q267.23-24.05 268.98-21.85 270.73-19.65 270.73-14.15L270.73-14.15 270.73-3.65 271.13 0.15 268.58 0.4 268.08-2.6Q266.93-1.6 264.83-0.58 262.73 0.45 260.83 0.45ZM278.87-1.15L278.87-1.15 279.52-3.75Q284.47-2.1 287.17-2.1 289.87-2.1 291.35-3.28 292.82-4.45 292.82-6.4 292.82-8.35 291.65-9.28 290.47-10.2 286.77-11.05 283.07-11.9 281.22-13.5L281.22-13.5Q279.37-15 279.37-18 279.37-21 281.65-22.58 283.92-24.15 287.52-24.15 291.12-24.15 295.32-22.55L295.32-22.55 294.62-20.2Q290.37-21.6 287.77-21.6 285.17-21.6 283.67-20.7L283.67-20.7Q282.17-19.7 282.17-18 282.17-16.3 283.5-15.35 284.82-14.4 288.62-13.45 292.42-12.5 294.02-11.03 295.62-9.55 295.62-6.4 295.62-3.25 293.47-1.4L293.47-1.4Q291.37 0.45 287.47 0.45 283.57 0.45 278.87-1.15ZM307.97-9.1L307.97-20.9 303.77-20.9 303.77-23.4 307.97-23.4 307.97-29.15 310.62-29.65 310.62-23.4 320.12-23.4 320.12-20.9 310.62-20.9 310.62-9.2Q310.62-5.3 311.4-3.7 312.17-2.1 314.57-2.1 316.97-2.1 319.87-3.05L319.87-3.05 320.47-0.55Q317.57 0.5 315.07 0.5 312.57 0.5 311.15-0.15 309.72-0.8 309.05-2.23 308.37-3.65 308.17-5.15 307.97-6.65 307.97-9.1L307.97-9.1ZM328.32-11.85Q328.32-17.6 330.69-20.83 333.07-24.05 337.62-24.05 342.17-24.05 344.39-21.05 346.62-18.05 346.62-13.05L346.62-13.05 346.47-10.55 331.17-10.55Q331.42-6.8 333.17-4.48 334.92-2.15 337.99-2.15 341.07-2.15 345.22-3.6L345.22-3.6 345.97-1.1Q341.92 0.45 338.37 0.45L338.37 0.45Q333.47 0.45 330.89-2.83 328.32-6.1 328.32-11.85ZM337.82-21.5L337.82-21.5Q331.52-21.5 331.17-13.05L331.17-13.05 343.77-13.05Q343.77-21.5 337.82-21.5ZM359.22-21.25L354.52-21.25 354.52-23.75 361.87-23.75 361.97-20.85Q363.57-21.85 366.47-22.85 369.37-23.85 371.57-24.05L371.57-24.05 371.57-21.1Q369.52-20.95 366.49-20.1 363.47-19.25 361.97-18.35L361.97-18.35 361.97-2.5 369.97-2.5 369.97 0 354.52 0 354.52-2.5 359.22-2.5 359.22-21.25ZM386.31 0.35L377.61-23.75 380.61-23.75 387.66-3.55 388.06-3.55 394.36-23.75 397.36-23.75 388.16 4.05Q386.86 8 385.44 9.1 384.01 10.2 379.66 10.3L379.66 10.3 379.66 7.75Q382.46 7.7 383.41 6.95 384.36 6.2 385.16 3.8L385.16 3.8 386.31 0.35Z" opacity="1" transform="matrix(1,0,0,1,0,0)" fill="white" class="wordmark-text-0" id="SvgjsPath2945"></path></svg></g></svg></g><g transform="matrix(1,0,0,1,75.54432000000001,53.94977967337134)"><svg viewBox="0 0 244.43135999999996 12.821550827168792" height="12.821550827168792" width="244.43135999999996"><g transform="matrix(1,0,0,1,0,0)"><svg width="244.43135999999996" viewBox="4.5 -35.599998474121094 892.0999755859375 46.79999923706055" height="12.821550827168792" data-palette-color="url(#8cf05702-f6ce-4c04-995b-dd1c934a1903)"></svg></g></svg></g></svg></g></svg></g><g transform="matrix(1,0,0,1,151.62101062412674,0)"><svg viewBox="0 0 92.27797875174649 92.27797875174647" height="92.27797875174647" width="92.27797875174649"><g><svg></svg></g><g id="SvgjsG2943"><svg viewBox="0 0 92.27797875174649 92.27797875174647" height="92.27797875174647" width="92.27797875174649"><g></g><g transform="matrix(1,0,0,1,18.455595750349307,22.714686451017247)"><svg viewBox="0 0 55.366787251047874 46.84860584971198" height="46.84860584971198" width="55.366787251047874"><g><svg xmlns="http://www.w3.org/2000/svg" xmlns:xlink="http://www.w3.org/1999/xlink" version="1.1" x="0" y="0" viewBox="0 13.42199993133545 100 84.61499786376953" enable-background="new 0 0 100 100" xml:space="preserve" height="46.84860584971198" width="55.366787251047874" class="icon-s-0" data-fill-palette-color="quaternary" id="SvgjsSvg2942"></svg></g></svg></g></svg></g></svg></g><g></g></svg></g></svg></g></svg></g><defs><mask></mask></defs></svg></g></mask><linearGradient x1="0" x2="1" y1="0.548" y2="0.55" id="e946ce21-88dc-40bf-9695-da7e6b574b70"><stop stop-color="#ff6cab" offset="0"></stop><stop stop-color="#7366ff" offset="1"></stop></linearGradient><rect width="395.5199890136719" height="247.20001220703125" fill="url(#e946ce21-88dc-40bf-9695-da7e6b574b70)" mask="url(#32428e8b-12f8-4e2b-b988-161a33846b52)" data-fill-palette-color="primary"></rect><mask id="dcab8f56-bfbe-4ef5-943e-a23a74d15929"><g id="SvgjsG2960"><svg viewBox="0 0 395.52 247.2" height="247.2" width="395.52"><g><svg></svg></g><g><svg viewBox="0 0 395.52 247.2" height="247.2" width="395.52"><g></g><g transform="matrix(1,0,0,1,67.86084533579108,67.97999999999999)"><svg viewBox="0 0 259.7983093284178 111.24" height="111.24" width="259.7983093284178"><g><svg viewBox="0 0 395.52 169.3530836044873" height="111.24" width="259.7983093284178"><g transform="matrix(1,0,0,1,0,102.58175310394716)"><svg viewBox="0 0 395.52 66.77133050054013" height="66.77133050054013" width="395.52"><g id="SvgjsG2959"><svg viewBox="0 0 395.52 66.77133050054013" height="66.77133050054013" width="395.52" id="SvgjsSvg2958"><g><svg viewBox="0 0 395.52 43.646005321170655" height="43.646005321170655" width="395.52"><g transform="matrix(1,0,0,1,0,0)"><svg width="395.52" viewBox="2.75 -33.25 394.6099853515625 43.54999923706055" height="43.646005321170655" data-palette-color="url(#e946ce21-88dc-40bf-9695-da7e6b574b70)"></svg></g></svg></g><g transform="matrix(1,0,0,1,75.54432000000001,53.94977967337134)"><svg viewBox="0 0 244.43135999999996 12.821550827168792" height="12.821550827168792" width="244.43135999999996"><g transform="matrix(1,0,0,1,0,0)"><svg width="244.43135999999996" viewBox="4.5 -35.599998474121094 892.0999755859375 46.79999923706055" height="12.821550827168792" data-palette-color="url(#8cf05702-f6ce-4c04-995b-dd1c934a1903)"><path d="M23.9 0L4.5 0 4.5-32.8 23.4-32.8 23.4-29.3 8.65-29.3 8.65-19 21.1-19 21.1-15.45 8.65-15.45 8.65-3.55 23.9-3.55 23.9 0ZM34.55 0L30.45 0 30.45-24.3 33.85-24.3 34.2-20.8 34.35-20.8Q35.95-22.55 37.82-23.73 39.7-24.9 41.9-24.9L41.9-24.9Q44.7-24.9 46.27-23.68 47.85-22.45 48.6-20.25L48.6-20.25Q50.5-22.35 52.42-23.63 54.35-24.9 56.6-24.9L56.6-24.9Q60.35-24.9 62.17-22.5 64-20.1 64-15.4L64-15.4 64 0 59.9 0 59.9-14.85Q59.9-18.3 58.8-19.83 57.7-21.35 55.4-21.35L55.4-21.35Q52.65-21.35 49.3-17.6L49.3-17.6 49.3 0 45.2 0 45.2-14.85Q45.2-18.3 44.1-19.83 43-21.35 40.65-21.35L40.65-21.35Q37.9-21.35 34.55-17.6L34.55-17.6 34.55 0ZM76 10.25L71.89 10.25 71.89-24.3 75.3-24.3 75.64-21.5 75.8-21.5Q77.45-22.9 79.42-23.9 81.4-24.9 83.55-24.9L83.55-24.9Q85.9-24.9 87.7-24.03 89.5-23.15 90.7-21.53 91.9-19.9 92.52-17.63 93.15-15.35 93.15-12.5L93.15-12.5Q93.15-9.4 92.3-6.98 91.45-4.55 90-2.85 88.55-1.15 86.65-0.28 84.75 0.6 82.65 0.6L82.65 0.6Q80.95 0.6 79.27-0.15 77.59-0.9 75.89-2.2L75.89-2.2 76 2.05 76 10.25ZM81.95-2.85L81.95-2.85Q83.45-2.85 84.72-3.53 86-4.2 86.92-5.43 87.84-6.65 88.37-8.45 88.9-10.25 88.9-12.5L88.9-12.5Q88.9-14.5 88.55-16.15 88.2-17.8 87.42-18.98 86.65-20.15 85.42-20.8 84.2-21.45 82.5-21.45L82.5-21.45Q80.95-21.45 79.37-20.6 77.8-19.75 76-18.15L76-18.15 76-5.4Q77.65-4 79.2-3.43 80.75-2.85 81.95-2.85ZM109.09 0.6L109.09 0.6Q106.84 0.6 104.82-0.25 102.79-1.1 101.24-2.73 99.69-4.35 98.77-6.73 97.84-9.1 97.84-12.1L97.84-12.1Q97.84-15.15 98.77-17.53 99.69-19.9 101.24-21.55 102.79-23.2 104.82-24.05 106.84-24.9 109.09-24.9L109.09-24.9Q111.34-24.9 113.37-24.05 115.39-23.2 116.94-21.55 118.49-19.9 119.42-17.53 120.34-15.15 120.34-12.1L120.34-12.1Q120.34-9.1 119.42-6.73 118.49-4.35 116.94-2.73 115.39-1.1 113.37-0.25 111.34 0.6 109.09 0.6ZM109.09-2.8L109.09-2.8Q110.64-2.8 111.94-3.48 113.24-4.15 114.17-5.38 115.09-6.6 115.59-8.3 116.09-10 116.09-12.1L116.09-12.1Q116.09-14.2 115.59-15.93 115.09-17.65 114.17-18.9 113.24-20.15 111.94-20.83 110.64-21.5 109.09-21.5L109.09-21.5Q107.54-21.5 106.24-20.83 104.94-20.15 104.02-18.9 103.09-17.65 102.59-15.93 102.09-14.2 102.09-12.1L102.09-12.1Q102.09-10 102.59-8.3 103.09-6.6 104.02-5.38 104.94-4.15 106.24-3.48 107.54-2.8 109.09-2.8ZM135.19 0L130.39 0 123.64-24.3 127.84-24.3 131.44-10.25Q131.84-8.5 132.19-6.85 132.54-5.2 132.89-3.5L132.89-3.5 133.09-3.5Q133.49-5.2 133.89-6.88 134.29-8.55 134.74-10.25L134.74-10.25 138.49-24.3 142.49-24.3 146.29-10.25Q146.74-8.5 147.17-6.85 147.59-5.2 147.99-3.5L147.99-3.5 148.19-3.5Q148.59-5.2 148.94-6.85 149.29-8.5 149.69-10.25L149.69-10.25 153.24-24.3 157.14-24.3 150.64 0 145.64 0 142.14-13.05Q141.69-14.8 141.31-16.5 140.94-18.2 140.49-20.05L140.49-20.05 140.29-20.05Q139.89-18.2 139.49-16.48 139.09-14.75 138.59-13L138.59-13 135.19 0ZM172.09 0.6L172.09 0.6Q169.64 0.6 167.51-0.28 165.39-1.15 163.81-2.78 162.24-4.4 161.34-6.75 160.44-9.1 160.44-12.1L160.44-12.1Q160.44-15.1 161.36-17.48 162.29-19.85 163.81-21.5 165.34-23.15 167.29-24.03 169.24-24.9 171.34-24.9L171.34-24.9Q173.64-24.9 175.46-24.1 177.29-23.3 178.51-21.8 179.74-20.3 180.39-18.2 181.04-16.1 181.04-13.5L181.04-13.5Q181.04-12.85 181.01-12.23 180.99-11.6 180.89-11.15L180.89-11.15 164.49-11.15Q164.74-7.25 166.91-4.98 169.09-2.7 172.59-2.7L172.59-2.7Q174.34-2.7 175.81-3.23 177.29-3.75 178.64-4.6L178.64-4.6 180.09-1.9Q178.49-0.9 176.54-0.15 174.59 0.6 172.09 0.6ZM164.44-14.1L164.44-14.1 177.44-14.1Q177.44-17.8 175.86-19.73 174.29-21.65 171.44-21.65L171.44-21.65Q170.14-21.65 168.96-21.15 167.79-20.65 166.84-19.68 165.89-18.7 165.26-17.3 164.64-15.9 164.44-14.1ZM191.14 0L187.04 0 187.04-24.3 190.44-24.3 190.79-19.9 190.94-19.9Q192.19-22.2 193.96-23.55 195.74-24.9 197.84-24.9L197.84-24.9Q199.29-24.9 200.44-24.4L200.44-24.4 199.64-20.8Q199.04-21 198.54-21.1 198.04-21.2 197.29-21.2L197.29-21.2Q195.74-21.2 194.06-19.95 192.39-18.7 191.14-15.6L191.14-15.6 191.14 0ZM208.48 0L204.38 0 204.38-24.3 208.48-24.3 208.48 0ZM206.48-29.3L206.48-29.3Q205.28-29.3 204.46-30.05 203.63-30.8 203.63-31.95L203.63-31.95Q203.63-33.15 204.46-33.88 205.28-34.6 206.48-34.6L206.48-34.6Q207.68-34.6 208.51-33.88 209.33-33.15 209.33-31.95L209.33-31.95Q209.33-30.8 208.51-30.05 207.68-29.3 206.48-29.3ZM220.78 0L216.68 0 216.68-24.3 220.08-24.3 220.43-20.8 220.58-20.8Q222.33-22.55 224.26-23.73 226.18-24.9 228.73-24.9L228.73-24.9Q232.58-24.9 234.36-22.5 236.13-20.1 236.13-15.4L236.13-15.4 236.13 0 232.03 0 232.03-14.85Q232.03-18.3 230.93-19.83 229.83-21.35 227.43-21.35L227.43-21.35Q225.53-21.35 224.08-20.4 222.63-19.45 220.78-17.6L220.78-17.6 220.78 0ZM252.23 11.2L252.23 11.2Q249.98 11.2 248.13 10.78 246.28 10.35 244.95 9.5 243.63 8.65 242.9 7.45 242.18 6.25 242.18 4.65L242.18 4.65Q242.18 3.1 243.13 1.7 244.08 0.3 245.73-0.85L245.73-0.85 245.73-1.05Q244.83-1.6 244.2-2.58 243.58-3.55 243.58-5L243.58-5Q243.58-6.55 244.43-7.7 245.28-8.85 246.23-9.5L246.23-9.5 246.23-9.7Q245.03-10.7 244.05-12.38 243.08-14.05 243.08-16.25L243.08-16.25Q243.08-18.25 243.8-19.85 244.53-21.45 245.78-22.58 247.03-23.7 248.7-24.3 250.38-24.9 252.23-24.9L252.23-24.9Q253.23-24.9 254.1-24.73 254.98-24.55 255.68-24.3L255.68-24.3 264.13-24.3 264.13-21.15 259.13-21.15Q259.98-20.3 260.55-19 261.13-17.7 261.13-16.15L261.13-16.15Q261.13-14.2 260.43-12.63 259.73-11.05 258.53-9.98 257.33-8.9 255.7-8.3 254.08-7.7 252.23-7.7L252.23-7.7Q251.33-7.7 250.38-7.93 249.43-8.15 248.58-8.55L248.58-8.55Q247.93-8 247.48-7.33 247.03-6.65 247.03-5.65L247.03-5.65Q247.03-4.5 247.93-3.75 248.83-3 251.33-3L251.33-3 256.03-3Q260.28-3 262.4-1.63 264.53-0.25 264.53 2.8L264.53 2.8Q264.53 4.5 263.68 6.03 262.83 7.55 261.23 8.7 259.63 9.85 257.35 10.53 255.08 11.2 252.23 11.2ZM252.23-10.45L252.23-10.45Q253.28-10.45 254.2-10.85 255.13-11.25 255.85-12 256.58-12.75 256.98-13.83 257.38-14.9 257.38-16.25L257.38-16.25Q257.38-18.95 255.88-20.43 254.38-21.9 252.23-21.9L252.23-21.9Q250.08-21.9 248.58-20.43 247.08-18.95 247.08-16.25L247.08-16.25Q247.08-14.9 247.48-13.83 247.88-12.75 248.6-12 249.33-11.25 250.25-10.85 251.18-10.45 252.23-10.45ZM252.83 8.35L252.83 8.35Q254.58 8.35 256 7.93 257.43 7.5 258.43 6.83 259.43 6.15 259.98 5.25 260.53 4.35 260.53 3.4L260.53 3.4Q260.53 1.7 259.28 1.05 258.03 0.4 255.63 0.4L255.63 0.4 251.43 0.4Q250.73 0.4 249.9 0.33 249.08 0.25 248.28 0L248.28 0Q246.98 0.95 246.38 2 245.78 3.05 245.78 4.1L245.78 4.1Q245.78 6.05 247.65 7.2 249.53 8.35 252.83 8.35ZM288.02 0L279.62 0 279.62-32.8 287.82-32.8Q295.42-32.8 299.37-28.6 303.32-24.4 303.32-16.55L303.32-16.55Q303.32-12.65 302.32-9.58 301.32-6.5 299.37-4.38 297.42-2.25 294.57-1.13 291.72 0 288.02 0L288.02 0ZM283.77-29.4L283.77-3.4 287.52-3.4Q293.27-3.4 296.15-6.85 299.02-10.3 299.02-16.55L299.02-16.55Q299.02-22.8 296.15-26.1 293.27-29.4 287.52-29.4L287.52-29.4 283.77-29.4ZM319.82 0.6L319.82 0.6Q317.37 0.6 315.25-0.28 313.12-1.15 311.55-2.78 309.97-4.4 309.07-6.75 308.17-9.1 308.17-12.1L308.17-12.1Q308.17-15.1 309.1-17.48 310.02-19.85 311.55-21.5 313.07-23.15 315.02-24.03 316.97-24.9 319.07-24.9L319.07-24.9Q321.37-24.9 323.2-24.1 325.02-23.3 326.25-21.8 327.47-20.3 328.12-18.2 328.77-16.1 328.77-13.5L328.77-13.5Q328.77-12.85 328.75-12.23 328.72-11.6 328.62-11.15L328.62-11.15 312.22-11.15Q312.47-7.25 314.65-4.98 316.82-2.7 320.32-2.7L320.32-2.7Q322.07-2.7 323.55-3.23 325.02-3.75 326.37-4.6L326.37-4.6 327.82-1.9Q326.22-0.9 324.27-0.15 322.32 0.6 319.82 0.6ZM312.17-14.1L312.17-14.1 325.17-14.1Q325.17-17.8 323.6-19.73 322.02-21.65 319.17-21.65L319.17-21.65Q317.87-21.65 316.7-21.15 315.52-20.65 314.57-19.68 313.62-18.7 313-17.3 312.37-15.9 312.17-14.1ZM345.07 0L340.27 0 331.52-24.3 335.77-24.3 340.37-10.5Q340.92-8.7 341.49-6.9 342.07-5.1 342.62-3.35L342.62-3.35 342.82-3.35Q343.37-5.1 343.92-6.9 344.47-8.7 345.02-10.5L345.02-10.5 349.62-24.3 353.67-24.3 345.07 0ZM368.02 0.6L368.02 0.6Q365.57 0.6 363.44-0.28 361.32-1.15 359.74-2.78 358.17-4.4 357.27-6.75 356.37-9.1 356.37-12.1L356.37-12.1Q356.37-15.1 357.29-17.48 358.22-19.85 359.74-21.5 361.27-23.15 363.22-24.03 365.17-24.9 367.27-24.9L367.27-24.9Q369.57-24.9 371.39-24.1 373.22-23.3 374.44-21.8 375.67-20.3 376.32-18.2 376.97-16.1 376.97-13.5L376.97-13.5Q376.97-12.85 376.94-12.23 376.92-11.6 376.82-11.15L376.82-11.15 360.42-11.15Q360.67-7.25 362.84-4.98 365.02-2.7 368.52-2.7L368.52-2.7Q370.27-2.7 371.74-3.23 373.22-3.75 374.57-4.6L374.57-4.6 376.02-1.9Q374.42-0.9 372.47-0.15 370.52 0.6 368.02 0.6ZM360.37-14.1L360.37-14.1 373.37-14.1Q373.37-17.8 371.79-19.73 370.22-21.65 367.37-21.65L367.37-21.65Q366.07-21.65 364.89-21.15 363.72-20.65 362.77-19.68 361.82-18.7 361.19-17.3 360.57-15.9 360.37-14.1ZM387.31 0.6L387.31 0.6Q384.96 0.6 383.96-0.8 382.96-2.2 382.96-4.9L382.96-4.9 382.96-35.6 387.06-35.6 387.06-4.6Q387.06-3.6 387.41-3.2 387.76-2.8 388.21-2.8L388.21-2.8Q388.41-2.8 388.59-2.8 388.76-2.8 389.11-2.9L389.11-2.9 389.66 0.2Q389.26 0.4 388.71 0.5 388.16 0.6 387.31 0.6ZM405.16 0.6L405.16 0.6Q402.91 0.6 400.89-0.25 398.86-1.1 397.31-2.73 395.76-4.35 394.84-6.73 393.91-9.1 393.91-12.1L393.91-12.1Q393.91-15.15 394.84-17.53 395.76-19.9 397.31-21.55 398.86-23.2 400.89-24.05 402.91-24.9 405.16-24.9L405.16-24.9Q407.41-24.9 409.44-24.05 411.46-23.2 413.01-21.55 414.56-19.9 415.49-17.53 416.41-15.15 416.41-12.1L416.41-12.1Q416.41-9.1 415.49-6.73 414.56-4.35 413.01-2.73 411.46-1.1 409.44-0.25 407.41 0.6 405.16 0.6ZM405.16-2.8L405.16-2.8Q406.71-2.8 408.01-3.48 409.31-4.15 410.24-5.38 411.16-6.6 411.66-8.3 412.16-10 412.16-12.1L412.16-12.1Q412.16-14.2 411.66-15.93 411.16-17.65 410.24-18.9 409.31-20.15 408.01-20.83 406.71-21.5 405.16-21.5L405.16-21.5Q403.61-21.5 402.31-20.83 401.01-20.15 400.09-18.9 399.16-17.65 398.66-15.93 398.16-14.2 398.16-12.1L398.16-12.1Q398.16-10 398.66-8.3 399.16-6.6 400.09-5.38 401.01-4.15 402.31-3.48 403.61-2.8 405.16-2.8ZM426.91 10.25L422.81 10.25 422.81-24.3 426.21-24.3 426.56-21.5 426.71-21.5Q428.36-22.9 430.33-23.9 432.31-24.9 434.46-24.9L434.46-24.9Q436.81-24.9 438.61-24.03 440.41-23.15 441.61-21.53 442.81-19.9 443.43-17.63 444.06-15.35 444.06-12.5L444.06-12.5Q444.06-9.4 443.21-6.98 442.36-4.55 440.91-2.85 439.46-1.15 437.56-0.28 435.66 0.6 433.56 0.6L433.56 0.6Q431.86 0.6 430.18-0.15 428.51-0.9 426.81-2.2L426.81-2.2 426.91 2.05 426.91 10.25ZM432.86-2.85L432.86-2.85Q434.36-2.85 435.63-3.53 436.91-4.2 437.83-5.43 438.76-6.65 439.28-8.45 439.81-10.25 439.81-12.5L439.81-12.5Q439.81-14.5 439.46-16.15 439.11-17.8 438.33-18.98 437.56-20.15 436.33-20.8 435.11-21.45 433.41-21.45L433.41-21.45Q431.86-21.45 430.28-20.6 428.71-19.75 426.91-18.15L426.91-18.15 426.91-5.4Q428.56-4 430.11-3.43 431.66-2.85 432.86-2.85ZM460.41 0.6L460.41 0.6Q457.96 0.6 455.83-0.28 453.71-1.15 452.13-2.78 450.56-4.4 449.66-6.75 448.76-9.1 448.76-12.1L448.76-12.1Q448.76-15.1 449.68-17.48 450.61-19.85 452.13-21.5 453.66-23.15 455.61-24.03 457.56-24.9 459.66-24.9L459.66-24.9Q461.96-24.9 463.78-24.1 465.61-23.3 466.83-21.8 468.06-20.3 468.71-18.2 469.36-16.1 469.36-13.5L469.36-13.5Q469.36-12.85 469.33-12.23 469.31-11.6 469.21-11.15L469.21-11.15 452.81-11.15Q453.06-7.25 455.23-4.98 457.41-2.7 460.91-2.7L460.91-2.7Q462.66-2.7 464.13-3.23 465.61-3.75 466.96-4.6L466.96-4.6 468.41-1.9Q466.81-0.9 464.86-0.15 462.91 0.6 460.41 0.6ZM452.76-14.1L452.76-14.1 465.76-14.1Q465.76-17.8 464.18-19.73 462.61-21.65 459.76-21.65L459.76-21.65Q458.46-21.65 457.28-21.15 456.11-20.65 455.16-19.68 454.21-18.7 453.58-17.3 452.96-15.9 452.76-14.1ZM479.45 0L475.35 0 475.35-24.3 478.75-24.3 479.1-19.9 479.25-19.9Q480.5-22.2 482.28-23.55 484.05-24.9 486.15-24.9L486.15-24.9Q487.6-24.9 488.75-24.4L488.75-24.4 487.95-20.8Q487.35-21 486.85-21.1 486.35-21.2 485.6-21.2L485.6-21.2Q484.05-21.2 482.38-19.95 480.7-18.7 479.45-15.6L479.45-15.6 479.45 0ZM498.85 0.6L498.85 0.6Q496.25 0.6 493.9-0.35 491.55-1.3 489.8-2.75L489.8-2.75 491.85-5.5Q493.45-4.2 495.13-3.4 496.8-2.6 499-2.6L499-2.6Q501.4-2.6 502.6-3.7 503.8-4.8 503.8-6.4L503.8-6.4Q503.8-7.35 503.3-8.05 502.8-8.75 502.03-9.28 501.25-9.8 500.25-10.2 499.25-10.6 498.25-11L498.25-11Q496.95-11.45 495.65-12.03 494.35-12.6 493.33-13.43 492.3-14.25 491.65-15.35 491-16.45 491-18L491-18Q491-19.45 491.58-20.73 492.15-22 493.23-22.93 494.3-23.85 495.85-24.38 497.4-24.9 499.35-24.9L499.35-24.9Q501.65-24.9 503.58-24.1 505.5-23.3 506.9-22.15L506.9-22.15 504.95-19.55Q503.7-20.5 502.35-21.1 501-21.7 499.4-21.7L499.4-21.7Q497.1-21.7 496.03-20.65 494.95-19.6 494.95-18.2L494.95-18.2Q494.95-17.35 495.4-16.73 495.85-16.1 496.6-15.63 497.35-15.15 498.33-14.78 499.3-14.4 500.35-14L500.35-14Q501.65-13.5 502.98-12.95 504.3-12.4 505.35-11.58 506.4-10.75 507.08-9.55 507.75-8.35 507.75-6.65L507.75-6.65Q507.75-5.15 507.18-3.85 506.6-2.55 505.48-1.55 504.35-0.55 502.68 0.03 501 0.6 498.85 0.6ZM512.7 8.5L512.7 8.5 511.7 6.1Q513.85 5.15 515.05 3.58 516.25 2 516.2 0L516.2 0Q516.05 0.05 515.7 0.05L515.7 0.05Q514.5 0.05 513.62-0.68 512.75-1.4 512.75-2.8L512.75-2.8Q512.75-4.15 513.65-4.93 514.55-5.7 515.8-5.7L515.8-5.7Q517.4-5.7 518.32-4.4 519.25-3.1 519.25-0.85L519.25-0.85Q519.25 2.4 517.5 4.8 515.75 7.2 512.7 8.5ZM555.69 0L536.29 0 536.29-32.8 555.19-32.8 555.19-29.3 540.44-29.3 540.44-19 552.89-19 552.89-15.45 540.44-15.45 540.44-3.55 555.69-3.55 555.69 0ZM566.34 0L562.24 0 562.24-24.3 565.64-24.3 565.99-20.8 566.14-20.8Q567.89-22.55 569.82-23.73 571.74-24.9 574.29-24.9L574.29-24.9Q578.14-24.9 579.92-22.5 581.69-20.1 581.69-15.4L581.69-15.4 581.69 0 577.59 0 577.59-14.85Q577.59-18.3 576.49-19.83 575.39-21.35 572.99-21.35L572.99-21.35Q571.09-21.35 569.64-20.4 568.19-19.45 566.34-17.6L566.34-17.6 566.34 0ZM595.94 0.6L595.94 0.6Q593.34 0.6 590.99-0.35 588.64-1.3 586.89-2.75L586.89-2.75 588.94-5.5Q590.54-4.2 592.21-3.4 593.89-2.6 596.09-2.6L596.09-2.6Q598.49-2.6 599.69-3.7 600.89-4.8 600.89-6.4L600.89-6.4Q600.89-7.35 600.39-8.05 599.89-8.75 599.11-9.28 598.34-9.8 597.34-10.2 596.34-10.6 595.34-11L595.34-11Q594.04-11.45 592.74-12.03 591.44-12.6 590.41-13.43 589.39-14.25 588.74-15.35 588.09-16.45 588.09-18L588.09-18Q588.09-19.45 588.66-20.73 589.24-22 590.31-22.93 591.39-23.85 592.94-24.38 594.49-24.9 596.44-24.9L596.44-24.9Q598.74-24.9 600.66-24.1 602.59-23.3 603.99-22.15L603.99-22.15 602.04-19.55Q600.79-20.5 599.44-21.1 598.09-21.7 596.49-21.7L596.49-21.7Q594.19-21.7 593.11-20.65 592.04-19.6 592.04-18.2L592.04-18.2Q592.04-17.35 592.49-16.73 592.94-16.1 593.69-15.63 594.44-15.15 595.41-14.78 596.39-14.4 597.44-14L597.44-14Q598.74-13.5 600.06-12.95 601.39-12.4 602.44-11.58 603.49-10.75 604.16-9.55 604.84-8.35 604.84-6.65L604.84-6.65Q604.84-5.15 604.26-3.85 603.69-2.55 602.56-1.55 601.44-0.55 599.76 0.03 598.09 0.6 595.94 0.6ZM617.64 0.6L617.64 0.6Q613.74 0.6 611.96-1.8 610.19-4.2 610.19-8.9L610.19-8.9 610.19-24.3 614.34-24.3 614.34-9.45Q614.34-6 615.41-4.48 616.49-2.95 618.89-2.95L618.89-2.95Q620.79-2.95 622.24-3.93 623.69-4.9 625.44-7.05L625.44-7.05 625.44-24.3 629.54-24.3 629.54 0 626.14 0 625.79-3.8 625.64-3.8Q623.94-1.8 622.06-0.6 620.19 0.6 617.64 0.6ZM641.83 0L637.73 0 637.73-24.3 641.13-24.3 641.48-19.9 641.63-19.9Q642.88-22.2 644.66-23.55 646.43-24.9 648.53-24.9L648.53-24.9Q649.98-24.9 651.13-24.4L651.13-24.4 650.33-20.8Q649.73-21 649.23-21.1 648.73-21.2 647.98-21.2L647.98-21.2Q646.43-21.2 644.76-19.95 643.08-18.7 641.83-15.6L641.83-15.6 641.83 0ZM659.18 0L655.08 0 655.08-24.3 659.18-24.3 659.18 0ZM657.18-29.3L657.18-29.3Q655.98-29.3 655.15-30.05 654.33-30.8 654.33-31.95L654.33-31.95Q654.33-33.15 655.15-33.88 655.98-34.6 657.18-34.6L657.18-34.6Q658.38-34.6 659.21-33.88 660.03-33.15 660.03-31.95L660.03-31.95Q660.03-30.8 659.21-30.05 658.38-29.3 657.18-29.3ZM671.48 0L667.38 0 667.38-24.3 670.78-24.3 671.13-20.8 671.28-20.8Q673.03-22.55 674.95-23.73 676.88-24.9 679.43-24.9L679.43-24.9Q683.28-24.9 685.05-22.5 686.83-20.1 686.83-15.4L686.83-15.4 686.83 0 682.73 0 682.73-14.85Q682.73-18.3 681.63-19.83 680.53-21.35 678.13-21.35L678.13-21.35Q676.23-21.35 674.78-20.4 673.33-19.45 671.48-17.6L671.48-17.6 671.48 0ZM702.92 11.2L702.92 11.2Q700.67 11.2 698.82 10.78 696.97 10.35 695.65 9.5 694.32 8.65 693.6 7.45 692.87 6.25 692.87 4.65L692.87 4.65Q692.87 3.1 693.82 1.7 694.77 0.3 696.42-0.85L696.42-0.85 696.42-1.05Q695.52-1.6 694.9-2.58 694.27-3.55 694.27-5L694.27-5Q694.27-6.55 695.12-7.7 695.97-8.85 696.92-9.5L696.92-9.5 696.92-9.7Q695.72-10.7 694.75-12.38 693.77-14.05 693.77-16.25L693.77-16.25Q693.77-18.25 694.5-19.85 695.22-21.45 696.47-22.58 697.72-23.7 699.4-24.3 701.07-24.9 702.92-24.9L702.92-24.9Q703.92-24.9 704.8-24.73 705.67-24.55 706.37-24.3L706.37-24.3 714.82-24.3 714.82-21.15 709.82-21.15Q710.67-20.3 711.25-19 711.82-17.7 711.82-16.15L711.82-16.15Q711.82-14.2 711.12-12.63 710.42-11.05 709.22-9.98 708.02-8.9 706.4-8.3 704.77-7.7 702.92-7.7L702.92-7.7Q702.02-7.7 701.07-7.93 700.12-8.15 699.27-8.55L699.27-8.55Q698.62-8 698.17-7.33 697.72-6.65 697.72-5.65L697.72-5.65Q697.72-4.5 698.62-3.75 699.52-3 702.02-3L702.02-3 706.72-3Q710.97-3 713.1-1.63 715.22-0.25 715.22 2.8L715.22 2.8Q715.22 4.5 714.37 6.03 713.52 7.55 711.92 8.7 710.32 9.85 708.05 10.53 705.77 11.2 702.92 11.2ZM702.92-10.45L702.92-10.45Q703.97-10.45 704.9-10.85 705.82-11.25 706.55-12 707.27-12.75 707.67-13.83 708.07-14.9 708.07-16.25L708.07-16.25Q708.07-18.95 706.57-20.43 705.07-21.9 702.92-21.9L702.92-21.9Q700.77-21.9 699.27-20.43 697.77-18.95 697.77-16.25L697.77-16.25Q697.77-14.9 698.17-13.83 698.57-12.75 699.3-12 700.02-11.25 700.95-10.85 701.87-10.45 702.92-10.45ZM703.52 8.35L703.52 8.35Q705.27 8.35 706.7 7.93 708.12 7.5 709.12 6.83 710.12 6.15 710.67 5.25 711.22 4.35 711.22 3.4L711.22 3.4Q711.22 1.7 709.97 1.05 708.72 0.4 706.32 0.4L706.32 0.4 702.12 0.4Q701.42 0.4 700.6 0.33 699.77 0.25 698.97 0L698.97 0Q697.67 0.95 697.07 2 696.47 3.05 696.47 4.1L696.47 4.1Q696.47 6.05 698.35 7.2 700.22 8.35 703.52 8.35ZM739.42 0.6L739.42 0.6Q735.97 0.6 733.02-0.7 730.07-2 727.92-4.25L727.92-4.25 730.42-7.15Q732.17-5.3 734.54-4.17 736.92-3.05 739.47-3.05L739.47-3.05Q742.72-3.05 744.52-4.53 746.32-6 746.32-8.4L746.32-8.4Q746.32-9.65 745.89-10.53 745.47-11.4 744.74-12.03 744.02-12.65 743.02-13.15 742.02-13.65 740.87-14.2L740.87-14.2 736.17-16.25Q735.02-16.75 733.82-17.45 732.62-18.15 731.67-19.15 730.72-20.15 730.12-21.53 729.52-22.9 729.52-24.7L729.52-24.7Q729.52-26.55 730.29-28.15 731.07-29.75 732.44-30.93 733.82-32.1 735.69-32.75 737.57-33.4 739.82-33.4L739.82-33.4Q742.77-33.4 745.27-32.27 747.77-31.15 749.52-29.35L749.52-29.35 747.27-26.65Q745.77-28.1 743.94-28.93 742.12-29.75 739.82-29.75L739.82-29.75Q737.07-29.75 735.39-28.48 733.72-27.2 733.72-24.95L733.72-24.95Q733.72-23.75 734.19-22.93 734.67-22.1 735.47-21.48 736.27-20.85 737.22-20.38 738.17-19.9 739.17-19.5L739.17-19.5 743.82-17.5Q745.22-16.9 746.47-16.13 747.72-15.35 748.62-14.33 749.52-13.3 750.04-11.93 750.57-10.55 750.57-8.75L750.57-8.75Q750.57-6.8 749.79-5.1 749.02-3.4 747.57-2.13 746.12-0.85 744.07-0.13 742.02 0.6 739.42 0.6ZM766.47 0.6L766.47 0.6Q764.02 0.6 761.89-0.28 759.77-1.15 758.19-2.78 756.62-4.4 755.72-6.75 754.82-9.1 754.82-12.1L754.82-12.1Q754.82-15.1 755.74-17.48 756.67-19.85 758.19-21.5 759.72-23.15 761.67-24.03 763.62-24.9 765.72-24.9L765.72-24.9Q768.02-24.9 769.84-24.1 771.67-23.3 772.89-21.8 774.12-20.3 774.77-18.2 775.42-16.1 775.42-13.5L775.42-13.5Q775.42-12.85 775.39-12.23 775.37-11.6 775.27-11.15L775.27-11.15 758.87-11.15Q759.12-7.25 761.29-4.98 763.47-2.7 766.97-2.7L766.97-2.7Q768.72-2.7 770.19-3.23 771.67-3.75 773.02-4.6L773.02-4.6 774.47-1.9Q772.87-0.9 770.92-0.15 768.97 0.6 766.47 0.6ZM758.82-14.1L758.82-14.1 771.82-14.1Q771.82-17.8 770.24-19.73 768.67-21.65 765.82-21.65L765.82-21.65Q764.52-21.65 763.34-21.15 762.17-20.65 761.22-19.68 760.27-18.7 759.64-17.3 759.02-15.9 758.82-14.1ZM791.01 0.6L791.01 0.6Q788.61 0.6 786.51-0.25 784.41-1.1 782.89-2.73 781.36-4.35 780.49-6.73 779.61-9.1 779.61-12.1L779.61-12.1Q779.61-15.15 780.56-17.53 781.51-19.9 783.11-21.55 784.71-23.2 786.84-24.05 788.96-24.9 791.31-24.9L791.31-24.9Q793.71-24.9 795.41-24.05 797.11-23.2 798.41-22.05L798.41-22.05 796.31-19.35Q795.26-20.3 794.09-20.9 792.91-21.5 791.46-21.5L791.46-21.5Q789.81-21.5 788.41-20.83 787.01-20.15 786.01-18.9 785.01-17.65 784.44-15.93 783.86-14.2 783.86-12.1L783.86-12.1Q783.86-10 784.41-8.3 784.96-6.6 785.94-5.38 786.91-4.15 788.31-3.48 789.71-2.8 791.36-2.8L791.36-2.8Q793.06-2.8 794.49-3.53 795.91-4.25 797.06-5.25L797.06-5.25 798.86-2.5Q797.21-1.05 795.21-0.23 793.21 0.6 791.01 0.6ZM811.31 0.6L811.31 0.6Q807.41 0.6 805.64-1.8 803.86-4.2 803.86-8.9L803.86-8.9 803.86-24.3 808.01-24.3 808.01-9.45Q808.01-6 809.09-4.48 810.16-2.95 812.56-2.95L812.56-2.95Q814.46-2.95 815.91-3.93 817.36-4.9 819.11-7.05L819.11-7.05 819.11-24.3 823.21-24.3 823.21 0 819.81 0 819.46-3.8 819.31-3.8Q817.61-1.8 815.74-0.6 813.86 0.6 811.31 0.6ZM835.51 0L831.41 0 831.41-24.3 834.81-24.3 835.16-19.9 835.31-19.9Q836.56-22.2 838.33-23.55 840.11-24.9 842.21-24.9L842.21-24.9Q843.66-24.9 844.81-24.4L844.81-24.4 844.01-20.8Q843.41-21 842.91-21.1 842.41-21.2 841.66-21.2L841.66-21.2Q840.11-21.2 838.43-19.95 836.76-18.7 835.51-15.6L835.51-15.6 835.51 0ZM852.86 0L848.76 0 848.76-24.3 852.86-24.3 852.86 0ZM850.86-29.3L850.86-29.3Q849.66-29.3 848.83-30.05 848.01-30.8 848.01-31.95L848.01-31.95Q848.01-33.15 848.83-33.88 849.66-34.6 850.86-34.6L850.86-34.6Q852.06-34.6 852.88-33.88 853.71-33.15 853.71-31.95L853.71-31.95Q853.71-30.8 852.88-30.05 852.06-29.3 850.86-29.3ZM868.7 0.6L868.7 0.6Q866.75 0.6 865.43 0 864.1-0.6 863.28-1.65 862.45-2.7 862.1-4.2 861.75-5.7 861.75-7.5L861.75-7.5 861.75-20.95 858.15-20.95 858.15-24.05 861.95-24.3 862.45-31.1 865.9-31.1 865.9-24.3 872.45-24.3 872.45-20.95 865.9-20.95 865.9-7.45Q865.9-5.2 866.73-3.98 867.55-2.75 869.65-2.75L869.65-2.75Q870.3-2.75 871.05-2.95 871.8-3.15 872.4-3.4L872.4-3.4 873.2-0.3Q872.2 0.05 871.03 0.33 869.85 0.6 868.7 0.6ZM878.35 10.45L878.35 10.45Q877.5 10.45 876.8 10.33 876.1 10.2 875.5 9.95L875.5 9.95 876.3 6.7Q876.7 6.8 877.2 6.93 877.7 7.05 878.15 7.05L878.15 7.05Q880.25 7.05 881.58 5.58 882.9 4.1 883.65 1.85L883.65 1.85 884.2 0.05 874.45-24.3 878.7-24.3 883.65-10.85Q884.2-9.25 884.83-7.48 885.45-5.7 886-4L886-4 886.2-4Q886.75-5.65 887.25-7.45 887.75-9.25 888.25-10.85L888.25-10.85 892.6-24.3 896.6-24.3 887.45 2Q886.8 3.8 886 5.35 885.2 6.9 884.1 8.03 883 9.15 881.6 9.8 880.2 10.45 878.35 10.45Z" opacity="1" transform="matrix(1,0,0,1,0,0)" fill="white" class="slogan-text-1" id="SvgjsPath2957"></path></svg></g></svg></g></svg></g></svg></g><g transform="matrix(1,0,0,1,151.62101062412674,0)"><svg viewBox="0 0 92.27797875174649 92.27797875174647" height="92.27797875174647" width="92.27797875174649"><g><svg></svg></g><g id="SvgjsG2956"><svg viewBox="0 0 92.27797875174649 92.27797875174647" height="92.27797875174647" width="92.27797875174649"><g></g><g transform="matrix(1,0,0,1,18.455595750349307,22.714686451017247)"><svg viewBox="0 0 55.366787251047874 46.84860584971198" height="46.84860584971198" width="55.366787251047874"><g><svg xmlns="http://www.w3.org/2000/svg" xmlns:xlink="http://www.w3.org/1999/xlink" version="1.1" x="0" y="0" viewBox="0 13.42199993133545 100 84.61499786376953" enable-background="new 0 0 100 100" xml:space="preserve" height="46.84860584971198" width="55.366787251047874" class="icon-s-0" data-fill-palette-color="quaternary" id="SvgjsSvg2955"></svg></g></svg></g></svg></g></svg></g><g></g></svg></g></svg></g></svg></g><defs><mask></mask></defs><mask><g id="SvgjsG2954"><svg viewBox="0 0 395.52 247.2" height="247.2" width="395.52"><g><svg></svg></g><g><svg viewBox="0 0 395.52 247.2" height="247.2" width="395.52"><g></g><g transform="matrix(1,0,0,1,67.86084533579108,67.97999999999999)"><svg viewBox="0 0 259.7983093284178 111.24" height="111.24" width="259.7983093284178"><g><svg viewBox="0 0 395.52 169.3530836044873" height="111.24" width="259.7983093284178"><g transform="matrix(1,0,0,1,0,102.58175310394716)"><svg viewBox="0 0 395.52 66.77133050054013" height="66.77133050054013" width="395.52"><g id="SvgjsG2953"><svg viewBox="0 0 395.52 66.77133050054013" height="66.77133050054013" width="395.52" id="SvgjsSvg2952"><g><svg viewBox="0 0 395.52 43.646005321170655" height="43.646005321170655" width="395.52"><g transform="matrix(1,0,0,1,0,0)"><svg width="395.52" viewBox="2.75 -33.25 394.6099853515625 43.54999923706055" height="43.646005321170655" data-palette-color="url(#e946ce21-88dc-40bf-9695-da7e6b574b70)"></svg></g></svg></g><g transform="matrix(1,0,0,1,75.54432000000001,53.94977967337134)"><svg viewBox="0 0 244.43135999999996 12.821550827168792" height="12.821550827168792" width="244.43135999999996"><g transform="matrix(1,0,0,1,0,0)"><svg width="244.43135999999996" viewBox="4.5 -35.599998474121094 892.0999755859375 46.79999923706055" height="12.821550827168792" data-palette-color="url(#8cf05702-f6ce-4c04-995b-dd1c934a1903)"></svg></g></svg></g></svg></g></svg></g><g transform="matrix(1,0,0,1,151.62101062412674,0)"><svg viewBox="0 0 92.27797875174649 92.27797875174647" height="92.27797875174647" width="92.27797875174649"><g><svg></svg></g><g id="SvgjsG2950"><svg viewBox="0 0 92.27797875174649 92.27797875174647" height="92.27797875174647" width="92.27797875174649"><g></g><g transform="matrix(1,0,0,1,18.455595750349307,22.714686451017247)"><svg viewBox="0 0 55.366787251047874 46.84860584971198" height="46.84860584971198" width="55.366787251047874"><g><svg xmlns="http://www.w3.org/2000/svg" xmlns:xlink="http://www.w3.org/1999/xlink" version="1.1" x="0" y="0" viewBox="0 13.42199993133545 100 84.61499786376953" enable-background="new 0 0 100 100" xml:space="preserve" height="46.84860584971198" width="55.366787251047874" class="icon-s-0" data-fill-palette-color="quaternary" id="SvgjsSvg2949"></svg></g></svg></g></svg></g></svg></g><g></g></svg></g></svg></g></svg></g><defs><mask></mask></defs></svg></g></mask></svg></g></mask><linearGradient x1="0" x2="1" y1="0.578" y2="0.595" id="8cf05702-f6ce-4c04-995b-dd1c934a1903"><stop stop-color="#6ee2f5" offset="0"></stop><stop stop-color="#6454f0" offset="1"></stop></linearGradient><rect width="395.5199890136719" height="247.20001220703125" fill="url(#8cf05702-f6ce-4c04-995b-dd1c934a1903)" mask="url(#dcab8f56-bfbe-4ef5-943e-a23a74d15929)" data-fill-palette-color="secondary"></rect><mask id="144c3192-c5fb-4598-a650-2c51a7b38759"><g id="SvgjsG2982"><svg viewBox="0 0 395.52 247.2" height="247.2" width="395.52"><g><svg></svg></g><g><svg viewBox="0 0 395.52 247.2" height="247.2" width="395.52"><g><path xmlns="http://www.w3.org/2000/svg" d="M55.039 247.2l26.403-45.732 1.955 0-25.373 43.947h279.472l-25.373-43.947 1.955 0 26.403 45.732zM197.76 0l26.403 45.732-1.954 0-24.449-42.347-24.449 42.347-1.954 0z" fill="white" fill-rule="nonzero" stroke="none" stroke-width="1" stroke-linecap="butt" stroke-linejoin="miter" stroke-miterlimit="10" stroke-dasharray="" stroke-dashoffset="0" font-family="none" font-weight="none" font-size="none" text-anchor="none" style="mix-blend-mode: normal"></path></g><g transform="matrix(1,0,0,1,67.86084533579108,67.97999999999999)"><svg viewBox="0 0 259.7983093284178 111.24" height="111.24" width="259.7983093284178"><g><svg viewBox="0 0 395.52 169.3530836044873" height="111.24" width="259.7983093284178"><g transform="matrix(1,0,0,1,0,102.58175310394716)"><svg viewBox="0 0 395.52 66.77133050054013" height="66.77133050054013" width="395.52"><g id="SvgjsG2981"><svg viewBox="0 0 395.52 66.77133050054013" height="66.77133050054013" width="395.52" id="SvgjsSvg2980"><g><svg viewBox="0 0 395.52 43.646005321170655" height="43.646005321170655" width="395.52"><g transform="matrix(1,0,0,1,0,0)"><svg width="395.52" viewBox="2.75 -33.25 394.6099853515625 43.54999923706055" height="43.646005321170655" data-palette-color="url(#e946ce21-88dc-40bf-9695-da7e6b574b70)"></svg></g></svg></g><g transform="matrix(1,0,0,1,75.54432000000001,53.94977967337134)"><svg viewBox="0 0 244.43135999999996 12.821550827168792" height="12.821550827168792" width="244.43135999999996"><g transform="matrix(1,0,0,1,0,0)"><svg width="244.43135999999996" viewBox="4.5 -35.599998474121094 892.0999755859375 46.79999923706055" height="12.821550827168792" data-palette-color="url(#8cf05702-f6ce-4c04-995b-dd1c934a1903)"></svg></g></svg></g></svg></g></svg></g><g transform="matrix(1,0,0,1,151.62101062412674,0)"><svg viewBox="0 0 92.27797875174649 92.27797875174647" height="92.27797875174647" width="92.27797875174649"><g><svg></svg></g><g id="SvgjsG2979"><svg viewBox="0 0 92.27797875174649 92.27797875174647" height="92.27797875174647" width="92.27797875174649"><g></g><g transform="matrix(1,0,0,1,18.455595750349307,22.714686451017247)"><svg viewBox="0 0 55.366787251047874 46.84860584971198" height="46.84860584971198" width="55.366787251047874"><g><svg xmlns="http://www.w3.org/2000/svg" xmlns:xlink="http://www.w3.org/1999/xlink" version="1.1" x="0" y="0" viewBox="0 13.42199993133545 100 84.61499786376953" enable-background="new 0 0 100 100" xml:space="preserve" height="46.84860584971198" width="55.366787251047874" class="icon-s-0" data-fill-palette-color="quaternary" id="SvgjsSvg2978"></svg></g></svg></g></svg></g></svg></g><g></g></svg></g></svg></g></svg></g><defs><mask></mask></defs><mask><g id="SvgjsG2977"><svg viewBox="0 0 395.52 247.2" height="247.2" width="395.52"><g><svg></svg></g><g><svg viewBox="0 0 395.52 247.2" height="247.2" width="395.52"><g></g><g transform="matrix(1,0,0,1,67.86084533579108,67.97999999999999)"><svg viewBox="0 0 259.7983093284178 111.24" height="111.24" width="259.7983093284178"><g><svg viewBox="0 0 395.52 169.3530836044873" height="111.24" width="259.7983093284178"><g transform="matrix(1,0,0,1,0,102.58175310394716)"><svg viewBox="0 0 395.52 66.77133050054013" height="66.77133050054013" width="395.52"><g id="SvgjsG2976"><svg viewBox="0 0 395.52 66.77133050054013" height="66.77133050054013" width="395.52" id="SvgjsSvg2975"><g><svg viewBox="0 0 395.52 43.646005321170655" height="43.646005321170655" width="395.52"><g transform="matrix(1,0,0,1,0,0)"><svg width="395.52" viewBox="2.75 -33.25 394.6099853515625 43.54999923706055" height="43.646005321170655" data-palette-color="url(#e946ce21-88dc-40bf-9695-da7e6b574b70)"></svg></g></svg></g><g transform="matrix(1,0,0,1,75.54432000000001,53.94977967337134)"><svg viewBox="0 0 244.43135999999996 12.821550827168792" height="12.821550827168792" width="244.43135999999996"><g transform="matrix(1,0,0,1,0,0)"><svg width="244.43135999999996" viewBox="4.5 -35.599998474121094 892.0999755859375 46.79999923706055" height="12.821550827168792" data-palette-color="url(#8cf05702-f6ce-4c04-995b-dd1c934a1903)"></svg></g></svg></g></svg></g></svg></g><g transform="matrix(1,0,0,1,151.62101062412674,0)"><svg viewBox="0 0 92.27797875174649 92.27797875174647" height="92.27797875174647" width="92.27797875174649"><g><svg></svg></g><g id="SvgjsG2973"><svg viewBox="0 0 92.27797875174649 92.27797875174647" height="92.27797875174647" width="92.27797875174649"><g></g><g transform="matrix(1,0,0,1,18.455595750349307,22.714686451017247)"><svg viewBox="0 0 55.366787251047874 46.84860584971198" height="46.84860584971198" width="55.366787251047874"><g><svg xmlns="http://www.w3.org/2000/svg" xmlns:xlink="http://www.w3.org/1999/xlink" version="1.1" x="0" y="0" viewBox="0 13.42199993133545 100 84.61499786376953" enable-background="new 0 0 100 100" xml:space="preserve" height="46.84860584971198" width="55.366787251047874" class="icon-s-0" data-fill-palette-color="quaternary" id="SvgjsSvg2972"></svg></g></svg></g></svg></g></svg></g><g></g></svg></g></svg></g></svg></g><defs><mask></mask></defs></svg></g></mask><mask><g id="SvgjsG2971"><svg viewBox="0 0 395.52 247.2" height="247.2" width="395.52"><g><svg></svg></g><g><svg viewBox="0 0 395.52 247.2" height="247.2" width="395.52"><g></g><g transform="matrix(1,0,0,1,67.86084533579108,67.97999999999999)"><svg viewBox="0 0 259.7983093284178 111.24" height="111.24" width="259.7983093284178"><g><svg viewBox="0 0 395.52 169.3530836044873" height="111.24" width="259.7983093284178"><g transform="matrix(1,0,0,1,0,102.58175310394716)"><svg viewBox="0 0 395.52 66.77133050054013" height="66.77133050054013" width="395.52"><g id="SvgjsG2970"><svg viewBox="0 0 395.52 66.77133050054013" height="66.77133050054013" width="395.52" id="SvgjsSvg2969"><g><svg viewBox="0 0 395.52 43.646005321170655" height="43.646005321170655" width="395.52"><g transform="matrix(1,0,0,1,0,0)"><svg width="395.52" viewBox="2.75 -33.25 394.6099853515625 43.54999923706055" height="43.646005321170655" data-palette-color="url(#e946ce21-88dc-40bf-9695-da7e6b574b70)"></svg></g></svg></g><g transform="matrix(1,0,0,1,75.54432000000001,53.94977967337134)"><svg viewBox="0 0 244.43135999999996 12.821550827168792" height="12.821550827168792" width="244.43135999999996"><g transform="matrix(1,0,0,1,0,0)"><svg width="244.43135999999996" viewBox="4.5 -35.599998474121094 892.0999755859375 46.79999923706055" height="12.821550827168792" data-palette-color="url(#8cf05702-f6ce-4c04-995b-dd1c934a1903)"></svg></g></svg></g></svg></g></svg></g><g transform="matrix(1,0,0,1,151.62101062412674,0)"><svg viewBox="0 0 92.27797875174649 92.27797875174647" height="92.27797875174647" width="92.27797875174649"><g><svg></svg></g><g id="SvgjsG2967"><svg viewBox="0 0 92.27797875174649 92.27797875174647" height="92.27797875174647" width="92.27797875174649"><g></g><g transform="matrix(1,0,0,1,18.455595750349307,22.714686451017247)"><svg viewBox="0 0 55.366787251047874 46.84860584971198" height="46.84860584971198" width="55.366787251047874"><g><svg xmlns="http://www.w3.org/2000/svg" xmlns:xlink="http://www.w3.org/1999/xlink" version="1.1" x="0" y="0" viewBox="0 13.42199993133545 100 84.61499786376953" enable-background="new 0 0 100 100" xml:space="preserve" height="46.84860584971198" width="55.366787251047874" class="icon-s-0" data-fill-palette-color="quaternary" id="SvgjsSvg2966"></svg></g></svg></g></svg></g></svg></g><g></g></svg></g></svg></g></svg></g><defs><mask></mask></defs><mask><g id="SvgjsG2965"><svg viewBox="0 0 395.52 247.2" height="247.2" width="395.52"><g><svg></svg></g><g><svg viewBox="0 0 395.52 247.2" height="247.2" width="395.52"><g></g><g transform="matrix(1,0,0,1,67.86084533579108,67.97999999999999)"><svg viewBox="0 0 259.7983093284178 111.24" height="111.24" width="259.7983093284178"><g><svg viewBox="0 0 395.52 169.3530836044873" height="111.24" width="259.7983093284178"><g transform="matrix(1,0,0,1,0,102.58175310394716)"><svg viewBox="0 0 395.52 66.77133050054013" height="66.77133050054013" width="395.52"><g id="SvgjsG2964"><svg viewBox="0 0 395.52 66.77133050054013" height="66.77133050054013" width="395.52" id="SvgjsSvg2963"><g><svg viewBox="0 0 395.52 43.646005321170655" height="43.646005321170655" width="395.52"><g transform="matrix(1,0,0,1,0,0)"><svg width="395.52" viewBox="2.75 -33.25 394.6099853515625 43.54999923706055" height="43.646005321170655" data-palette-color="url(#e946ce21-88dc-40bf-9695-da7e6b574b70)"></svg></g></svg></g><g transform="matrix(1,0,0,1,75.54432000000001,53.94977967337134)"><svg viewBox="0 0 244.43135999999996 12.821550827168792" height="12.821550827168792" width="244.43135999999996"><g transform="matrix(1,0,0,1,0,0)"><svg width="244.43135999999996" viewBox="4.5 -35.599998474121094 892.0999755859375 46.79999923706055" height="12.821550827168792" data-palette-color="url(#8cf05702-f6ce-4c04-995b-dd1c934a1903)"></svg></g></svg></g></svg></g></svg></g><g transform="matrix(1,0,0,1,151.62101062412674,0)"><svg viewBox="0 0 92.27797875174649 92.27797875174647" height="92.27797875174647" width="92.27797875174649"><g><svg></svg></g><g id="SvgjsG2962"><svg viewBox="0 0 92.27797875174649 92.27797875174647" height="92.27797875174647" width="92.27797875174649"><g></g><g transform="matrix(1,0,0,1,18.455595750349307,22.714686451017247)"><svg viewBox="0 0 55.366787251047874 46.84860584971198" height="46.84860584971198" width="55.366787251047874"><g><svg xmlns="http://www.w3.org/2000/svg" xmlns:xlink="http://www.w3.org/1999/xlink" version="1.1" x="0" y="0" viewBox="0 13.42199993133545 100 84.61499786376953" enable-background="new 0 0 100 100" xml:space="preserve" height="46.84860584971198" width="55.366787251047874" class="icon-s-0" data-fill-palette-color="quaternary" id="SvgjsSvg2961"></svg></g></svg></g></svg></g></svg></g><g></g></svg></g></svg></g></svg></g><defs><mask></mask></defs></svg></g></mask></svg></g></mask></svg></g></mask><linearGradient x1="0" x2="1" y1="0.548" y2="0.55" id="e68a5cea-db87-4890-88f1-b9c51661b2a4"><stop stop-color="#ff6cab" offset="0"></stop><stop stop-color="#7366ff" offset="1"></stop></linearGradient></svg><rect width="395.52" height="247.2" fill="none" stroke="none" visibility="hidden"></rect></g></svg></g></svg>